<?xml version="1.0" standalone="no"?>
<!DOCTYPE svg PUBLIC "-//W3C//DTD SVG 20010904//EN"
 "http://www.w3.org/TR/2001/REC-SVG-20010904/DTD/svg10.dtd">
<svg version="1.0" xmlns="http://www.w3.org/2000/svg"
 width="512.000000pt" height="512.000000pt" viewBox="0 0 512.000000 512.000000"
 preserveAspectRatio="xMidYMid meet">

<g transform="translate(0.000000,512.000000) scale(0.100000,-0.100000)"
fill="#000000" stroke="none">
<path d="M1114 4846 c-407 -75 -712 -354 -822 -751 l-27 -100 0 -1435 0 -1435
27 -100 c101 -365 368 -632 737 -733 l96 -27 1435 0 1435 0 100 27 c365 101
632 368 733 737 l27 96 0 1435 0 1435 -27 96 c-101 369 -368 636 -733 736
l-100 28 -1405 2 c-1112 1 -1420 -1 -1476 -11z m408 -640 c186 -40 338 -182
392 -365 18 -62 21 -193 5 -261 -41 -180 -206 -342 -387 -381 -29 -6 -52 -16
-52 -22 1 -36 34 -145 61 -201 64 -131 164 -230 294 -293 129 -61 149 -63 780
-63 l571 0 17 69 c58 224 266 385 497 385 459 0 691 -548 370 -874 -162 -165
-402 -201 -615 -93 -113 58 -229 211 -255 338 l-11 55 -574 0 c-608 0 -652 3
-776 49 -115 44 -244 137 -320 233 l-39 50 0 -450 0 -450 53 -12 c182 -42 334
-191 383 -373 18 -69 18 -189 -1 -262 -56 -212 -242 -365 -465 -381 -291 -22
-550 221 -550 517 0 230 177 449 405 500 l55 12 0 628 0 628 -55 11 c-141 29
-279 138 -345 274 -100 203 -63 434 94 590 72 72 138 110 238 136 88 23 142
24 230 6z"/>
</g>
</svg>
