<?xml version="1.0" encoding="UTF-8"?>
<!DOCTYPE svg PUBLIC "-//W3C//DTD SVG 1.1//EN" "http://www.w3.org/Graphics/SVG/1.1/DTD/svg11.dtd">
<svg xmlns="http://www.w3.org/2000/svg" version="1.1" width="512px" height="512px" style="shape-rendering:geometricPrecision; text-rendering:geometricPrecision; image-rendering:optimizeQuality; fill-rule:evenodd; clip-rule:evenodd" xmlns:xlink="http://www.w3.org/1999/xlink">
<g><path style="opacity:0.995" fill="#000000" d="M -0.5,-0.5 C 170.167,-0.5 340.833,-0.5 511.5,-0.5C 511.5,170.167 511.5,340.833 511.5,511.5C 340.833,511.5 170.167,511.5 -0.5,511.5C -0.5,340.833 -0.5,170.167 -0.5,-0.5 Z M 134.5,116.5 C 156.233,115.923 177.9,116.757 199.5,119C 247.199,126.191 272.865,153.691 276.5,201.5C 274.485,250.356 249.485,279.856 201.5,290C 181.93,293.523 162.264,294.356 142.5,292.5C 141.5,325.16 141.167,357.827 141.5,390.5C 121.5,390.5 101.5,390.5 81.5,390.5C 81.5,300.833 81.5,211.167 81.5,121.5C 99.282,119.488 116.949,117.821 134.5,116.5 Z M 361.5,188.5 C 381.155,188.553 400.155,192.053 418.5,199C 419.516,199.519 420.182,200.353 420.5,201.5C 417.312,214.92 413.812,228.253 410,241.5C 394.513,233.269 378.013,229.769 360.5,231C 346.031,233.127 341.198,240.96 346,254.5C 347.833,256.333 349.667,258.167 351.5,260C 368.333,266.945 384.999,274.278 401.5,282C 427.421,300.153 435.255,324.32 425,354.5C 413.659,375.437 396.159,387.937 372.5,392C 340.688,397.614 310.021,393.947 280.5,381C 284.01,366.962 287.676,352.962 291.5,339C 299.299,342.161 307.299,345.161 315.5,348C 330.691,352.94 346.024,353.607 361.5,350C 369.936,345.614 372.77,338.781 370,329.5C 369.117,326.898 367.617,324.731 365.5,323C 348.412,315.624 331.412,307.958 314.5,300C 282.48,277.564 276.98,249.731 298,216.5C 315.309,198.344 336.475,189.011 361.5,188.5 Z"/></g>
<g><path style="opacity:0.971" fill="#000000" d="M 166.5,161.5 C 209.15,163.634 223.983,184.967 211,225.5C 201.824,238.967 188.991,246.134 172.5,247C 162.15,247.638 151.817,247.471 141.5,246.5C 141.5,219.167 141.5,191.833 141.5,164.5C 149.924,163.15 158.258,162.15 166.5,161.5 Z"/></g>
</svg>
