<?xml version="1.0" encoding="UTF-8"?>
<!DOCTYPE svg PUBLIC "-//W3C//DTD SVG 1.1//EN" "http://www.w3.org/Graphics/SVG/1.1/DTD/svg11.dtd">
<svg xmlns="http://www.w3.org/2000/svg" version="1.1" width="512px" height="512px" style="shape-rendering:geometricPrecision; text-rendering:geometricPrecision; image-rendering:optimizeQuality; fill-rule:evenodd; clip-rule:evenodd" xmlns:xlink="http://www.w3.org/1999/xlink">
<g><path style="opacity:0.997" fill="#000000" d="M -0.5,-0.5 C 170.167,-0.5 340.833,-0.5 511.5,-0.5C 511.5,170.167 511.5,340.833 511.5,511.5C 340.833,511.5 170.167,511.5 -0.5,511.5C -0.5,340.833 -0.5,170.167 -0.5,-0.5 Z M 99.5,116.5 C 122.167,116.5 144.833,116.5 167.5,116.5C 167.5,189.833 167.5,263.167 167.5,336.5C 198.833,336.5 230.167,336.5 261.5,336.5C 261.5,355.833 261.5,375.167 261.5,394.5C 207.5,394.5 153.5,394.5 99.5,394.5C 99.5,301.833 99.5,209.167 99.5,116.5 Z M 390.5,192.5 C 397.5,192.5 404.5,192.5 411.5,192.5C 411.667,211.836 411.5,231.17 411,250.5C 395.243,246.432 380.41,248.599 366.5,257C 359.863,262.444 355.363,269.278 353,277.5C 351.524,316.452 351.024,355.452 351.5,394.5C 331.167,394.5 310.833,394.5 290.5,394.5C 290.904,328.483 290.237,262.483 288.5,196.5C 305.837,196.333 323.17,196.5 340.5,197C 341.741,209.079 342.408,221.246 342.5,233.5C 343.822,233.67 344.989,233.337 346,232.5C 353.811,211.182 368.644,197.848 390.5,192.5 Z"/></g>
</svg>
