<?xml version="1.0" standalone="no"?>
<!DOCTYPE svg PUBLIC "-//W3C//DTD SVG 20010904//EN"
 "http://www.w3.org/TR/2001/REC-SVG-20010904/DTD/svg10.dtd">
<svg version="1.0" xmlns="http://www.w3.org/2000/svg"
 width="512.000000pt" height="512.000000pt" viewBox="0 0 512.000000 512.000000"
 preserveAspectRatio="xMidYMid meet">

<g transform="translate(0.000000,512.000000) scale(0.100000,-0.100000)"
fill="#FFFFFF" stroke="none">
<path d="M325 5058 c3 -35 96 -1070 204 -2301 109 -1231 201 -2240 203 -2243
3 -3 416 -119 917 -259 l911 -255 911 255 c501 140 914 256 916 259 3 3 410
4544 413 4604 0 1 -1008 2 -2241 2 l-2241 0 7 -62z m3634 -925 c0 -27 -10
-154 -22 -283 l-22 -235 -1072 -3 c-921 -2 -1073 -4 -1073 -16 0 -20 38 -449
45 -513 l6 -53 1020 0 1019 0 0 -22 c0 -67 -151 -1702 -157 -1708 -4 -4 -264
-78 -576 -165 l-568 -158 -567 158 c-312 87 -570 161 -575 165 -5 5 -87 847
-87 903 0 4 126 7 280 7 154 0 280 -3 281 -7 0 -5 10 -111 22 -238 l22 -230
300 -82 c165 -45 311 -82 325 -82 14 0 160 37 325 82 l300 82 32 345 c17 190
32 355 32 367 l1 23 -972 2 -972 3 -73 810 c-39 446 -72 829 -72 853 l-1 42
1400 0 1400 0 -1 -47z"/>
</g>
</svg>
